<svg xmlns="http://www.w3.org/2000/svg" viewBox="0 0 520 80" fill="none">
  <!-- AI -->
  <path d="M0 62L20.5 8h11L52 62h-10.5L36.2 47H15.3L10 62H0zm17.8-24h15.8L25.7 14.5h-.3L17.8 38z" fill="#ff9a00"/>
  <path d="M58 62V8h10v54H58z" fill="#ff9a00"/>
  <!-- Orange underline -->
  <rect x="0" y="68" width="68" height="4" rx="2" fill="#ff9a00"/>
  <!-- KONSULENTERNE -->
  <path d="M95 52V16h5.5v17.5L118 16h7l-16.5 16L126 52h-7l-14-17-4.5 4.5V52H95z" fill="#ff9a00"/>
  <path d="M130.5 34c0-11 8-19 19-19s19 8 19 19-8 19-19 19-19-8-19-19zm32.5 0c0-8.2-5.5-14-13.5-14S136 25.8 136 34s5.5 14 13.5 14S163 42.2 163 34z" fill="#ff9a00"/>
  <path d="M176 52V16h5l21.5 28.5V16h5.5v36h-5L181.5 23.5V52H176z" fill="#ff9a00"/>
  <path d="M216 44.5l5-2.5c1.5 5 5.5 8 11 8 5.5 0 9-3 9-7 0-4.5-4-6.5-10-8.5-7-2.5-13-5.5-13-13 0-7 5.5-12 13.5-12 7 0 12 4 14 9.5l-5 2.5c-1.5-4-4.5-7-9-7-4.5 0-8 2.5-8 6.5 0 4.5 4 6 10 8 7 2.5 13 6 13 13.5 0 7.5-6 12.5-14.5 12.5-8 0-13.5-4.5-16-12z" fill="#ff9a00"/>
  <path d="M255 37V16h5.5v21c0 8 4 13 11 13s11-5 11-13V16h5.5v21c0 11-6.5 17-16.5 17S255 48 255 37z" fill="#ff9a00"/>
  <path d="M298 52V16h5.5v31h19V52H298z" fill="#ff9a00"/>
  <path d="M329 52V16h24v5h-18.5v10H352v5h-17.5v11H353v5H329z" fill="#ff9a00"/>
  <path d="M361 52V16h5l21.5 28.5V16h5.5v36h-5L366.5 23.5V52H361z" fill="#ff9a00"/>
  <path d="M403 52V21h-12v-5h29.5v5H408.5v31H403z" fill="#ff9a00"/>
  <path d="M425 52V16h24v5h-18.5v10H448v5h-17.5v11H449v5H425z" fill="#ff9a00"/>
  <path d="M456 52V16h14c8 0 13 5 13 12.5 0 6-3.5 10.5-9.5 12L484 52h-6.5l-9.5-11h-7v11H456zm5.5-16h8.5c5 0 8-3 8-7.5S475 21 470 21h-8.5v15z" fill="#ff9a00"/>
  <path d="M490 52V16h5l21.5 28.5V16h5.5v36h-5L495.5 23.5V52H490z" fill="#ff9a00"/>
  <path d="M530 52V16h24v5h-18.5v10H553v5h-17.5v11H554v5H530z" fill="#ff9a00"/>
</svg>
